
<svg xmlns="http://www.w3.org/2000/svg" viewBox="0 0 500 500">
<defs>
 <linearGradient id="grad" gradientTransform="rotate(92)">
        <stop offset="65%" stop-color="hsl(40,100%,70%)" />
        <stop offset="100%" stop-color="hsl(290,50%,60%)"/>
    </linearGradient>


 <linearGradient id="grad2" gradientTransform="rotate(88)">
        <stop offset="15%" stop-color="transparent" />
        <stop offset="75%" stop-color="hsla(180,50%,50%,0.3)" />
        <stop offset="90%" stop-color="transparent"/>
    </linearGradient>
</defs>

<path fill="url(#grad)" d="M250.5,15.5c-129.79,0-235,105.21-235,235s105.21,235,235,235,235-105.21,235-235S380.29,15.5,250.5,15.5Zm18,226c-.24,23.38,13.22,63.76,20,86,3.8,17.17,19,23,35.31,30.66,4.24,1.39,4.94,7.29,7.24,10.52,6.73,9.41,2.12,14.07,2,18.15-2.32,7.7-31.39,23.53-37.83,27.17-32.74,18.5-61.46-7.68-73.74-19.5-34.13-38.1-8.32-107.1-22.42-151.91C-149.26,217.47,233.5,5.5,368.5,129.5c34.31,28.31,62,32,61.71,62.36C434,229,345.5,234.5,268.5,241.5Z"/>
<path fill="url(#grad2)" d="M250.5,15.5c-129.79,0-235,105.21-235,235s105.21,235,235,235,235-105.21,235-235S380.29,15.5,250.5,15.5Zm18,226c-.24,23.38,13.22,63.76,20,86,3.8,17.17,19,23,35.31,30.66,4.24,1.39,4.94,7.29,7.24,10.52,6.73,9.41,2.12,14.07,2,18.15-2.32,7.7-31.39,23.53-37.83,27.17-32.74,18.5-61.46-7.68-73.74-19.5-34.13-38.1-8.32-107.1-22.42-151.91C-149.26,217.47,233.5,5.5,368.5,129.5c34.31,28.31,62,32,61.71,62.36C434,229,345.5,234.5,268.5,241.5Z"/>
</svg>